<svg width="77" height="40" viewBox="0 0 77 40" fill="none" xmlns="http://www.w3.org/2000/svg">
<path fill-rule="evenodd" clip-rule="evenodd" d="M71.3599 3V8.31894C71.0511 8.31894 70.8843 8.26992 70.6798 8.02512C70.3564 7.63835 70.0552 7.42773 69.5766 7.27767C67.4305 6.60547 65.1363 7.62921 64.1906 9.71355C63.3758 11.5099 63.324 13.3778 63.8869 15.2437C64.534 17.3909 66.1121 18.5912 68.2387 18.6384C69.2605 18.6614 70.2079 18.4413 70.8975 17.6016C71.0705 17.391 71.2379 17.3834 71.4847 17.4361V18.3612H75V3H71.3599ZM67.1943 14.1293C66.7871 13.113 66.793 11.8047 67.2008 10.8963C67.5715 10.0703 68.1074 9.80238 68.8765 9.80002C69.686 9.79576 70.2932 10.1704 70.6175 10.9527C71.0659 12.0348 71.064 13.1336 70.5573 14.2021C70.2124 14.9293 69.6126 15.24 68.873 15.24H68.8649C68.1015 15.2378 67.5005 14.8936 67.1943 14.1293ZM45.8246 7.45774C44.7686 7.78702 43.9044 8.39397 43.4402 9.42774C43.2747 9.79637 43.1314 10.3665 43.0957 10.6354H46.7991C47.1005 9.83542 47.8645 9.51975 48.8773 9.76405C49.5354 9.92264 49.8671 10.4611 49.7809 11.2869C48.9934 11.2869 48.2217 11.2817 47.4501 11.2882C46.5253 11.2957 45.6145 11.3801 44.7529 11.7581C41.9996 12.9649 42.045 16.2231 43.794 17.7064C44.6426 18.4261 45.6527 18.6549 46.7446 18.6392C47.7214 18.6252 48.52 18.3544 49.276 17.7144C49.5023 17.5229 49.6581 17.4131 49.9662 17.5236V18.3646H53.378C53.378 18.3646 53.3801 13.7078 53.3748 11.5171C53.3745 11.2139 53.3536 10.9085 53.3147 10.6078C53.1269 9.1589 52.3919 8.08608 50.9917 7.57518C50.0863 7.245 49.1686 7.07999 48.2466 7.07999C47.4406 7.07999 46.6314 7.20595 45.8246 7.45774ZM46.5565 15.7015C46.1798 15.5153 45.9514 15.0703 45.946 14.5645C45.941 14.0936 46.1219 13.7627 46.4728 13.5002C46.7356 13.3037 47.0725 13.2415 47.3655 13.2225C48.0012 13.1808 49.3133 13.2099 49.3133 13.2099C49.3501 14.0963 49.3323 14.9358 48.6357 15.4958C48.2697 15.7901 47.8633 15.92 47.4612 15.92C47.1498 15.92 46.841 15.8421 46.5565 15.7015ZM35.0312 7.16278C33.1227 7.44172 31.6915 8.40909 30.9083 10.2396C30.3999 11.4277 30.3119 12.6736 30.4891 13.9381C30.741 15.7366 31.5771 17.1626 33.2193 18.0012C34.5143 18.6618 35.8984 18.7714 37.3121 18.5062C38.6052 18.2643 39.6892 17.6552 40.4668 16.5589C40.9079 15.9368 41.1735 15.2219 41.2162 14.4333H37.8297C37.7077 14.4333 37.6289 14.5038 37.5776 14.629C37.4756 14.8784 37.3406 15.1407 37.1367 15.3083C36.5203 15.8157 34.9986 15.8368 34.4483 14.6957C33.9145 13.5887 33.9139 12.4371 34.3157 11.3048C34.7088 10.1968 35.659 9.9309 36.6711 10.1758C37.0334 10.2637 37.3099 10.4931 37.4471 10.8432C37.5173 11.0222 37.6301 11.082 37.8445 11.082L41.1073 11.0787C41.01 9.73775 40.2629 8.54984 39.0909 7.8623C38.1546 7.31311 37.1585 7.07999 36.1284 7.07999C35.7666 7.07999 35.4005 7.10873 35.0312 7.16278ZM60.5943 7.28012C59.9836 7.37901 59.44 7.65666 59.0483 8.12634C58.8767 8.33266 58.71 8.41873 58.4106 8.32883V7.15191H54.7297V17.96H58.5312C58.5312 17.96 58.5126 14.6277 58.5536 13.1621C58.5976 11.5797 59.5004 10.6809 61.1496 10.5228C61.7066 10.469 62.2917 10.4609 62.8378 10.4445V7.07999C62.0107 7.11432 61.3192 7.16252 60.5943 7.28012ZM1.83295 7.07999C0.822173 7.07999 0 7.91371 0 8.93906V24.2611C0 25.2863 0.822173 26.12 1.83295 26.12H25.8699C26.8804 26.12 27.7027 25.2863 27.7027 24.2611V8.93906C27.7027 7.91371 26.8804 7.07999 25.8699 7.07999H1.83295ZM3.37836 22.72H24.3243V10.48H3.37836V22.72ZM46.5005 21.7377C45.444 22.067 44.58 22.674 44.1156 23.7079C43.9503 24.0765 43.8069 24.6466 43.7717 24.9155H47.4747C47.7764 24.1155 48.5399 23.7997 49.5529 24.0442C50.2111 24.2031 50.5425 24.7412 50.4565 25.5668C49.6691 25.5668 48.8972 25.5617 48.1258 25.5683C47.2011 25.576 46.2904 25.6602 45.4286 26.0381C42.6752 27.2449 42.7207 30.5032 44.4697 31.9866C45.3182 32.7059 46.3283 32.9348 47.4201 32.9193C48.397 32.9052 49.1954 32.6343 49.9517 31.9944C50.1776 31.8028 50.334 31.693 50.6419 31.8037V32.6444H54.0535C54.0535 32.6444 54.0558 27.9879 54.0508 25.7972C54.05 25.494 54.0292 25.1888 53.9904 24.8878C53.8026 23.439 53.0673 22.3661 51.6672 21.8553C50.7618 21.5248 49.844 21.36 48.9223 21.36C48.1166 21.36 47.3071 21.4861 46.5005 21.7377ZM47.2323 29.9814C46.8555 29.7952 46.6271 29.3502 46.6217 28.8444C46.6171 28.3733 46.7982 28.0426 47.1491 27.7802C47.4112 27.5835 47.7485 27.5215 48.0415 27.5025C48.6767 27.4611 49.989 27.4895 49.989 27.4895C50.0259 28.3764 50.008 29.2156 49.3113 29.7757C48.9455 30.0699 48.5389 30.2 48.1369 30.2C47.8254 30.2 47.5168 30.1219 47.2323 29.9814ZM37.761 21.36C37.6503 21.36 37.538 21.3633 37.4241 21.3697C36.5549 21.4184 35.7627 21.6956 35.1977 22.4148C35.0269 22.6329 34.8613 22.6405 34.6074 22.5873V21.6445H31.0811V37H34.7311V31.8036C35.0241 31.7204 35.1827 31.8027 35.336 32.0117C35.6293 32.4117 36.0356 32.6759 36.5045 32.8205C38.3066 33.3768 40.5088 32.8234 41.6531 30.864C42.7245 29.029 42.8061 26.3355 42.1494 24.5758C41.3763 22.5044 39.8594 21.3601 37.7613 21.36H37.761ZM34.8919 28.6393C34.2734 27.5411 34.3581 25.8953 34.8943 24.9479C35.3254 24.1868 36.0608 23.9999 36.8638 24.1083C37.6075 24.2086 38.0663 24.6917 38.3185 25.3962C38.638 26.2868 38.5454 27.8769 38.1829 28.5559C37.8429 29.193 37.1618 29.52 36.4874 29.52C35.8534 29.52 35.2255 29.2312 34.8919 28.6393ZM63.5031 22.04C63.2373 22.04 63.139 22.1255 63.0336 22.3443C63.0336 22.3443 61.1128 26.8081 61.0417 26.9729C60.97 27.1376 60.8389 27.2787 60.623 27.2787C60.457 27.2787 60.2994 27.2385 60.1695 26.9943L57.8952 22.2648C57.8256 22.1201 57.7411 22.04 57.5197 22.04H54.0541L58.6029 31.3682C58.6889 31.5405 58.7175 31.7215 58.6279 31.9208L56.3934 37H59.7404C60.0004 37 60.1225 36.947 60.2292 36.7194L66.8919 22.04H63.5031Z" fill="#00B900"/>
</svg>
